<?xml version="1.0" encoding="UTF-8" standalone="no"?>
<!-- Created with Inkscape (http://www.inkscape.org/) -->

<svg
   width="252.14792mm"
   height="126.20625mm"
   viewBox="0 0 252.14792 126.20625"
   version="1.1"
   id="svg1"
   inkscape:version="1.3 (0e150ed6c4, 2023-07-21)"
   sodipodi:docname="op-iter--pro-orte.svg"
   xmlns:inkscape="http://www.inkscape.org/namespaces/inkscape"
   xmlns:sodipodi="http://sodipodi.sourceforge.net/DTD/sodipodi-0.dtd"
   xmlns="http://www.w3.org/2000/svg"
   xmlns:svg="http://www.w3.org/2000/svg">
  <sodipodi:namedview
     id="namedview1"
     pagecolor="#ffffff"
     bordercolor="#000000"
     borderopacity="0.25"
     inkscape:showpageshadow="2"
     inkscape:pageopacity="0.0"
     inkscape:pagecheckerboard="0"
     inkscape:deskcolor="#d1d1d1"
     inkscape:document-units="mm"
     inkscape:zoom="0.76702441"
     inkscape:cx="777.68059"
     inkscape:cy="179.26418"
     inkscape:window-width="1830"
     inkscape:window-height="1057"
     inkscape:window-x="82"
     inkscape:window-y="-8"
     inkscape:window-maximized="1"
     inkscape:current-layer="layer1" />
  <defs
     id="defs1">
    <clipPath
       id="clip0">
      <rect
         x="389"
         y="8"
         width="953"
         height="477"
         id="rect1" />
    </clipPath>
  </defs>
  <g
     inkscape:label="Layer 1"
     inkscape:groupmode="layer"
     id="layer1"
     transform="translate(100.80625,-101.07083)">
    <g
       clip-path="url(#clip0)"
       transform="matrix(0.26458333,0,0,0.26458333,-203.72917,98.954167)"
       id="g47">
      <rect
         x="389"
         y="8"
         width="952"
         height="476"
         fill="#ffffff"
         id="rect2" />
      <g
         id="g2">
        <path
           d="m 522.5,312.5 h 786 m -786,-31 h 786 m -786,-32 h 786 m -786,-31 h 786 m -786,-32 h 786 m -786,-31 h 786 m -786,-32 h 786 m -786,-31 h 786 m -786,-31.9999 h 786 m -786,-31 h 786"
           stroke="#d9d9d9"
           stroke-linejoin="round"
           stroke-miterlimit="10"
           fill="none"
           id="path2" />
      </g>
      <g
         id="g3">
        <path
           d="M 568.5,29.5001 V 344.5 m 46,-314.9999 V 344.5 m 46,-314.9999 V 344.5 m 47,-314.9999 V 344.5 m 46,-314.9999 V 344.5 m 46,-314.9999 V 344.5 m 46,-314.9999 V 344.5 m 46,-314.9999 V 344.5 m 47,-314.9999 V 344.5 m 46,-314.9999 V 344.5 m 46,-314.9999 V 344.5 m 46,-314.9999 V 344.5 m 47,-314.9999 V 344.5 m 46,-314.9999 V 344.5 m 46,-314.9999 V 344.5 m 46,-314.9999 V 344.5 m 47,-314.9999 V 344.5"
           stroke="#d9d9d9"
           stroke-linejoin="round"
           stroke-miterlimit="10"
           fill="none"
           id="path3" />
      </g>
      <g
         id="g4">
        <path
           d="M 0,0 1.04987e-4,315"
           stroke="#5b9bd5"
           stroke-linejoin="round"
           stroke-miterlimit="10"
           fill="none"
           fill-rule="evenodd"
           transform="matrix(1,0,0,-1,522.5,344.5)"
           id="path4" />
      </g>
      <g
         id="g5">
        <path
           d="m 514.5,344.5 h 8 m -8,-32 h 8 m -8,-31 h 8 m -8,-32 h 8 m -8,-31 h 8 m -8,-32 h 8 m -8,-31 h 8 m -8,-32 h 8 m -8,-31 h 8 m -8,-31.9999 h 8 m -8,-31 h 8"
           stroke="#5b9bd5"
           stroke-linejoin="round"
           stroke-miterlimit="10"
           fill="none"
           id="path5" />
      </g>
      <g
         id="g6">
        <path
           d="m 522.5,344.5 h 786"
           stroke="#d9d9d9"
           stroke-linejoin="round"
           stroke-miterlimit="10"
           fill="none"
           fill-rule="evenodd"
           id="path6" />
      </g>
      <g
         id="g7">
        <path
           d="m 522.5,344.5 v 8 m 46,-8 v 8 m 46,-8 v 8 m 46,-8 v 8 m 47,-8 v 8 m 46,-8 v 8 m 46,-8 v 8 m 46,-8 v 8 m 46,-8 v 8 m 47,-8 v 8 m 46,-8 v 8 m 46,-8 v 8 m 46,-8 v 8 m 47,-8 v 8 m 46,-8 v 8 m 46,-8 v 8 m 46,-8 v 8 m 47,-8 v 8"
           stroke="#d9d9d9"
           stroke-linejoin="round"
           stroke-miterlimit="10"
           fill="none"
           id="path7" />
      </g>
      <g
         id="g8">
        <path
           d="m 522.5,344.5 h 4 5 4 5 5 4 5 5 4 5 4 5 5 4 5 5 4 5 l 4,-1 h 5 5 4 5 5 l 4,-1 h 5 4 l 5,-1 h 5 4 5 l 5,-1 4,-1 5,-1 h 4 l 5,-1 h 5 l 4,-3 5,-2 5,-20 h 4 5 4 l 5,-1 h 5 4 5 5 4 5 l 4,-1 h 5 5 l 4,-1 h 5 4 5 5 l 4,-1 h 5 5 4 5 4 5 5 4 5 l 5,-1 h 4 5 4 5 5 4 l 5,-1 h 5 4 l 5,-2 h 4 5 l 5,-1 h 4 5 5 4 l 5,-3 h 4 l 5,-1 h 5 l 4,-1 5,-11 5,-1 h 4 l 5,-2 h 4 l 5,-14 5,-7 4,-4 5,-2 5,-2 4,-14 5,-6 4,-4 5,-2 5,-1 4,-1 5,-6 5,-5 4,-17 5,-1 4,-1 5,-2 5,-1 4,-1 5,-1 5,-2 4,-1 5,-2 4,-1 5,-1 5,-3 4,-6 5,-10 5,-1 h 4 l 5,-11 4,-6 5,-15 5,-29 4,-2 5,-1"
           stroke="#a5a5a5"
           stroke-width="3"
           stroke-linecap="round"
           stroke-linejoin="round"
           stroke-miterlimit="10"
           fill="none"
           id="path8" />
      </g>
      <g
         id="g9">
        <path
           d="m 522.5,344.5 h 4 5 4 5 5 4 5 5 4 5 4 5 5 4 5 5 4 5 l 4,-1 h 5 5 l 4,-1 5,-1 h 5 l 4,-1 h 5 l 4,-2 5,-1 5,-2 4,-2 5,-1 h 5 l 4,-1 5,-15 4,-5 5,-11 5,-13 4,-20 h 5 5 4 5 4 l 5,-1 h 5 4 5 5 4 5 4 5 5 l 4,-1 h 5 l 4,-1 h 5 5 l 4,-1 h 5 5 l 4,-1 h 5 l 4,-1 5,-2 h 5 l 4,-1 h 5 5 l 4,-2 5,-1 4,-5 5,-3 h 5 l 4,-3 5,-1 5,-7 4,-4 5,-1 4,-15 5,-7 5,-44 4,-12"
           stroke="#ffc000"
           stroke-width="3"
           stroke-linecap="round"
           stroke-linejoin="round"
           stroke-miterlimit="10"
           fill="none"
           id="path9" />
      </g>
      <g
         id="g10">
        <path
           d="m 522.5,344.5 h 4 5 4 5 5 4 5 5 4 5 4 5 5 4 5 5 4 5 4 5 5 4 5 5 l 4,-1 h 5 4 5 5 4 5 l 5,-1 h 4 5 4 5 5 l 4,-1 h 5 5 l 4,-1 5,-1 4,-1 h 5 l 5,-4 h 4 l 5,-4 5,-6 4,-7 5,-17 h 4 5 5 4 5 4 5 l 5,-1 h 4 5 5 4 5 4 5 5 4 5 5 4 5 4 5 5 4 5 5 4 5 4 5 5 4 5 5 4 5 l 4,-1 h 5 5 4 5 5 4 5 4 5 5 4 5 5 l 4,-1 h 5 4 5 5 l 4,-1 h 5 5 4 5 4 l 5,-1 h 5 4 5 5 l 4,-1 h 5 4 5 l 5,-1 h 4 5 l 5,-1 h 4 l 5,-1 h 4 l 5,-1 h 5 4 5 l 5,-2 4,-1 5,-3 h 4 5 5 l 4,-5 5,-5 h 4 l 5,-3 5,-1 4,-4 5,-9 5,-11 4,-1 5,-1 4,-6 5,-9 5,-11 4,-8 5,-16 5,-6 4,-2 5,-7 4,-4 5,-7 5,-17 4,-13 5,-14 5,-5 4,-25.9999"
           stroke="#4472c4"
           stroke-width="3"
           stroke-linecap="round"
           stroke-linejoin="round"
           stroke-miterlimit="10"
           fill="none"
           id="path10" />
      </g>
      <g
         id="g11">
        <path
           d="m 522.5,344.5 h 4 5 4 5 5 4 5 5 4 5 4 5 5 4 5 5 4 5 4 5 5 4 5 5 4 l 5,-1 h 4 5 5 4 5 5 4 5 l 4,-1 h 5 5 4 5 l 5,-2 4,-2 5,-3 4,-3 5,-1 5,-3 4,-7 5,-2 5,-2 4,-1 5,-19 h 4 5 5 4 5 l 4,-1 h 5 5 4 5 5 4 5 l 4,-1 h 5 5 4 5 5 4 5 4 5 5 4 5 5 4 5 4 5 l 5,-1 h 4 5 5 4 5 4 5 5 l 4,-1 h 5 5 4 5 4 l 5,-1 h 5 4 l 5,-1 h 5 4 5 l 4,-1 h 5 l 5,-1 4,-2 5,-1 h 5 4 l 5,-1 h 4 5 l 5,-2 4,-2 5,-2 5,-3 h 4 l 5,-2 4,-12 5,-8 5,-2 4,-7 5,-2 5,-1 4,-3 5,-16 4,-3 5,-6 5,-10 4,-3 5,-4 5,-18 4,-2 5,-3 4,-2 5,-4 5,-3 4,-1 5,-2 h 4 5 l 5,-1 4,-11 5,-2 5,-9 4,-3 5,-11 4,-13 5,-6 5,-23.9999 4,-13"
           stroke="#70ad47"
           stroke-width="3"
           stroke-linecap="round"
           stroke-linejoin="round"
           stroke-miterlimit="10"
           fill="none"
           id="path11" />
      </g>
      <g
         id="g12">
        <path
           d="m 522.5,344.5 h 4 5 4 5 5 4 5 5 4 5 4 5 5 4 5 5 4 5 4 5 5 4 5 5 l 4,-1 h 5 4 5 l 5,-1 h 4 l 5,-1 h 5 4 l 5,-1 4,-1 h 5 l 5,-4 4,-2 5,-7 5,-12 4,-16 5,-18 h 4 5 5 4 5 l 5,-1 h 4 5 4 5 5 4 5 4 5 5 4 5 5 4 5 4 5 5 4 5 5 4 5 4 5 5 4 5 l 5,-1 h 4 5 4 5 5 4 5 5 l 4,-1 h 5 4 5 l 5,-1 h 4 5 5 4 5 l 4,-1 h 5 5 l 4,-1 h 5 l 5,-1 h 4 l 5,-1 h 4 5 l 5,-1 h 4 l 5,-2 h 5 l 4,-1 5,-1 h 4 l 5,-3 5,-3 4,-3 5,-1 5,-2 h 4 l 5,-9 h 4 l 5,-1 5,-6 4,-2 5,-13 5,-2 4,-3 h 5 l 4,-14 5,-19 5,-1 4,-1 5,-18 5,-1"
           stroke="#ed7d31"
           stroke-width="3"
           stroke-linecap="round"
           stroke-linejoin="round"
           stroke-miterlimit="10"
           fill="none"
           id="path12" />
      </g>
      <g
         id="g13">
        <text
           fill="#595959"
           font-family="Calibri, Calibri_MSFontService, sans-serif"
           font-weight="400"
           font-size="24px"
           transform="translate(487.634,352)"
           id="text12">0</text>
      </g>
      <g
         id="g14">
        <text
           fill="#595959"
           font-family="Calibri, Calibri_MSFontService, sans-serif"
           font-weight="400"
           font-size="24px"
           transform="translate(451.133,320)"
           id="text13">2000</text>
      </g>
      <g
         id="g15">
        <text
           fill="#595959"
           font-family="Calibri, Calibri_MSFontService, sans-serif"
           font-weight="400"
           font-size="24px"
           transform="translate(451.133,288)"
           id="text14">4000</text>
      </g>
      <g
         id="g16">
        <text
           fill="#595959"
           font-family="Calibri, Calibri_MSFontService, sans-serif"
           font-weight="400"
           font-size="24px"
           transform="translate(451.133,257)"
           id="text15">6000</text>
      </g>
      <g
         id="g17">
        <text
           fill="#595959"
           font-family="Calibri, Calibri_MSFontService, sans-serif"
           font-weight="400"
           font-size="24px"
           transform="translate(451.133,225)"
           id="text16">8000</text>
      </g>
      <g
         id="g18">
        <text
           fill="#595959"
           font-family="Calibri, Calibri_MSFontService, sans-serif"
           font-weight="400"
           font-size="24px"
           transform="translate(438.967,194)"
           id="text17">10000</text>
      </g>
      <g
         id="g19">
        <text
           fill="#595959"
           font-family="Calibri, Calibri_MSFontService, sans-serif"
           font-weight="400"
           font-size="24px"
           transform="translate(438.967,162)"
           id="text18">12000</text>
      </g>
      <g
         id="g20">
        <text
           fill="#595959"
           font-family="Calibri, Calibri_MSFontService, sans-serif"
           font-weight="400"
           font-size="24px"
           transform="translate(438.967,131)"
           id="text19">14000</text>
      </g>
      <g
         id="g21">
        <text
           fill="#595959"
           font-family="Calibri, Calibri_MSFontService, sans-serif"
           font-weight="400"
           font-size="24px"
           transform="translate(438.967,99)"
           id="text20">16000</text>
      </g>
      <g
         id="g22">
        <text
           fill="#595959"
           font-family="Calibri, Calibri_MSFontService, sans-serif"
           font-weight="400"
           font-size="24px"
           transform="translate(438.967,68)"
           id="text21">18000</text>
      </g>
      <g
         id="g23">
        <text
           fill="#595959"
           font-family="Calibri, Calibri_MSFontService, sans-serif"
           font-weight="400"
           font-size="24px"
           transform="translate(438.967,36)"
           id="text22">20000</text>
      </g>
      <g
         id="g24">
        <text
           fill="#595959"
           font-family="Calibri, Calibri_MSFontService, sans-serif"
           font-weight="400"
           font-size="24px"
           transform="translate(515.985,383)"
           id="text23">0</text>
      </g>
      <g
         id="g25">
        <text
           fill="#595959"
           font-family="Calibri, Calibri_MSFontService, sans-serif"
           font-weight="400"
           font-size="24px"
           transform="translate(602.374,383)"
           id="text24">20</text>
      </g>
      <g
         id="g26">
        <text
           fill="#595959"
           font-family="Calibri, Calibri_MSFontService, sans-serif"
           font-weight="400"
           font-size="24px"
           transform="translate(694.846,383)"
           id="text25">40</text>
      </g>
      <g
         id="g27">
        <text
           fill="#595959"
           font-family="Calibri, Calibri_MSFontService, sans-serif"
           font-weight="400"
           font-size="24px"
           transform="translate(787.318,383)"
           id="text26">60</text>
      </g>
      <g
         id="g28">
        <text
           fill="#595959"
           font-family="Calibri, Calibri_MSFontService, sans-serif"
           font-weight="400"
           font-size="24px"
           transform="translate(879.791,383)"
           id="text27">80</text>
      </g>
      <g
         id="g29">
        <text
           fill="#595959"
           font-family="Calibri, Calibri_MSFontService, sans-serif"
           font-weight="400"
           font-size="24px"
           transform="translate(966.18,383)"
           id="text28">100</text>
      </g>
      <g
         id="g30">
        <text
           fill="#595959"
           font-family="Calibri, Calibri_MSFontService, sans-serif"
           font-weight="400"
           font-size="24px"
           transform="translate(1058.65,383)"
           id="text29">120</text>
      </g>
      <g
         id="g31">
        <text
           fill="#595959"
           font-family="Calibri, Calibri_MSFontService, sans-serif"
           font-weight="400"
           font-size="24px"
           transform="translate(1151.12,383)"
           id="text30">140</text>
      </g>
      <g
         id="g32">
        <text
           fill="#595959"
           font-family="Calibri, Calibri_MSFontService, sans-serif"
           font-weight="400"
           font-size="24px"
           transform="translate(1243.6,383)"
           id="text31">160</text>
      </g>
      <g
         id="g33">
        <text
           fill="#595959"
           font-family="Calibri, Calibri_MSFontService, sans-serif"
           font-weight="400"
           font-size="24px"
           transform="rotate(-90,408.3335,-20.3335)"
           id="text32"># Optimierer</text>
      </g>
      <g
         id="g34">
        <text
           fill="#595959"
           font-family="Calibri, Calibri_MSFontService, sans-serif"
           font-weight="400"
           font-size="24px"
           transform="rotate(-90,345.8335,-82.8335)"
           id="text33">-</text>
      </g>
      <g
         id="g35">
        <text
           fill="#595959"
           font-family="Calibri, Calibri_MSFontService, sans-serif"
           font-weight="400"
           font-size="24px"
           transform="rotate(-90,342.3335,-86.3335)"
           id="text34">Iterationen (kumuliert)</text>
      </g>
      <g
         id="g36">
        <text
           fill="#595959"
           font-family="Calibri, Calibri_MSFontService, sans-serif"
           font-weight="400"
           font-size="24px"
           transform="translate(848.662,416)"
           id="text35"># Ortschaften</text>
      </g>
      <g
         id="g37">
        <path
           d="m 554.5,457.5 h 26"
           stroke="#a5a5a5"
           stroke-width="3"
           stroke-linecap="round"
           stroke-linejoin="round"
           stroke-miterlimit="10"
           fill="none"
           fill-rule="evenodd"
           id="path36" />
      </g>
      <g
         id="g38">
        <text
           fill="#595959"
           font-family="Calibri, Calibri_MSFontService, sans-serif"
           font-weight="400"
           font-size="24px"
           transform="translate(582.829,465)"
           id="text37">Siedler1</text>
      </g>
      <g
         id="g39">
        <path
           d="m 684.5,457.5 h 25"
           stroke="#ffc000"
           stroke-width="3"
           stroke-linecap="round"
           stroke-linejoin="round"
           stroke-miterlimit="10"
           fill="none"
           fill-rule="evenodd"
           id="path38" />
      </g>
      <g
         id="g40">
        <text
           fill="#595959"
           font-family="Calibri, Calibri_MSFontService, sans-serif"
           font-weight="400"
           font-size="24px"
           transform="translate(712.399,465)"
           id="text39">Siedler2</text>
      </g>
      <g
         id="g41">
        <path
           d="m 813.5,457.5 h 26"
           stroke="#4472c4"
           stroke-width="3"
           stroke-linecap="round"
           stroke-linejoin="round"
           stroke-miterlimit="10"
           fill="none"
           fill-rule="evenodd"
           id="path40" />
      </g>
      <g
         id="g42">
        <text
           fill="#595959"
           font-family="Calibri, Calibri_MSFontService, sans-serif"
           font-weight="400"
           font-size="24px"
           transform="translate(841.97,465)"
           id="text41">Siedler3</text>
      </g>
      <g
         id="g43">
        <path
           d="m 943.5,457.5 h 25"
           stroke="#70ad47"
           stroke-width="3"
           stroke-linecap="round"
           stroke-linejoin="round"
           stroke-miterlimit="10"
           fill="none"
           fill-rule="evenodd"
           id="path42" />
      </g>
      <g
         id="g44">
        <text
           fill="#595959"
           font-family="Calibri, Calibri_MSFontService, sans-serif"
           font-weight="400"
           font-size="24px"
           transform="translate(971.54,465)"
           id="text43">Siedler4</text>
      </g>
      <g
         id="g45">
        <path
           d="m 1072.5,457.5 h 26"
           stroke="#ed7d31"
           stroke-width="3"
           stroke-linecap="round"
           stroke-linejoin="round"
           stroke-miterlimit="10"
           fill="none"
           fill-rule="evenodd"
           id="path44" />
      </g>
      <g
         id="g46">
        <text
           fill="#595959"
           font-family="Calibri, Calibri_MSFontService, sans-serif"
           font-weight="400"
           font-size="24px"
           transform="translate(1101.11,465)"
           id="text45">Siedler5</text>
      </g>
      <rect
         x="389.5"
         y="8.5000496"
         width="952"
         height="476"
         stroke="#d9d9d9"
         stroke-linejoin="round"
         stroke-miterlimit="10"
         fill="none"
         id="rect46" />
    </g>
  </g>
</svg>
