<?xml version="1.0" encoding="UTF-8" standalone="no"?>
<!-- Created with Inkscape (http://www.inkscape.org/) -->

<svg
   width="253.47083mm"
   height="109.27292mm"
   viewBox="0 0 253.47083 109.27292"
   version="1.1"
   id="svg1"
   inkscape:version="1.3 (0e150ed6c4, 2023-07-21)"
   sodipodi:docname="orte-pro-zentren.svg"
   xmlns:inkscape="http://www.inkscape.org/namespaces/inkscape"
   xmlns:sodipodi="http://sodipodi.sourceforge.net/DTD/sodipodi-0.dtd"
   xmlns="http://www.w3.org/2000/svg"
   xmlns:svg="http://www.w3.org/2000/svg">
  <sodipodi:namedview
     id="namedview1"
     pagecolor="#ffffff"
     bordercolor="#000000"
     borderopacity="0.25"
     inkscape:showpageshadow="2"
     inkscape:pageopacity="0.0"
     inkscape:pagecheckerboard="0"
     inkscape:deskcolor="#d1d1d1"
     inkscape:document-units="mm"
     inkscape:zoom="0.76702441"
     inkscape:cx="394.38119"
     inkscape:cy="46.282751"
     inkscape:window-width="1830"
     inkscape:window-height="1057"
     inkscape:window-x="82"
     inkscape:window-y="-8"
     inkscape:window-maximized="1"
     inkscape:current-layer="layer1" />
  <defs
     id="defs1">
    <clipPath
       id="clip0">
      <rect
         x="384"
         y="0"
         width="958"
         height="413"
         id="rect1" />
    </clipPath>
  </defs>
  <g
     inkscape:label="Layer 1"
     inkscape:groupmode="layer"
     id="layer1"
     transform="translate(-0.56025872,1.5899248)">
    <g
       clip-path="url(#clip0)"
       transform="matrix(0.26458333,0,0,0.26458333,-101.03974,-1.5899248)"
       id="g63">
      <rect
         x="384"
         y="0"
         width="957"
         height="412"
         fill="#ffffff"
         id="rect2" />
      <g
         id="g2">
        <path
           d="m 492.5,301.5 h 701 m -701,-33 h 701 m -701,-33 h 701 m -701,-33 h 701 m -701,-33 h 701 m -701,-33 h 701 m -701,-33 h 701 m -701,-32.9999 h 701 m -701,-33 h 701"
           stroke="#f2f2f2"
           stroke-linejoin="round"
           stroke-miterlimit="10"
           fill="none"
           id="path2" />
      </g>
      <g
         id="g3">
        <path
           d="m 492.5,284.5 h 701 m -701,-33 h 701 m -701,-33 h 701 m -701,-33 h 701 m -701,-33 h 701 m -701,-32 h 701 m -701,-32.9999 h 701 m -701,-33 h 701 m -701,-33 h 701"
           stroke="#d9d9d9"
           stroke-linejoin="round"
           stroke-miterlimit="10"
           fill="none"
           id="path3" />
      </g>
      <g
         id="g4">
        <path
           d="M 492.5,21.5001 V 317.5 M 726.5,21.5001 V 317.5 M 959.5,21.5001 V 317.5 m 234,-295.9999 V 317.5"
           stroke="#d9d9d9"
           stroke-linejoin="round"
           stroke-miterlimit="10"
           fill="none"
           id="path4" />
      </g>
      <g
         id="g5">
        <path
           d="m 492.5,317.5 h 701"
           stroke="#d9d9d9"
           stroke-linejoin="round"
           stroke-miterlimit="10"
           fill="none"
           fill-rule="evenodd"
           id="path5" />
      </g>
      <g
         id="g6">
        <path
           d="m 492.5,317.5 v 8 m 234,-8 v 8 m 233,-8 v 8 m 234,-8 v 8"
           stroke="#d9d9d9"
           stroke-linejoin="round"
           stroke-miterlimit="10"
           fill="none"
           id="path6" />
      </g>
      <g
         id="g7">
        <path
           d="m 492.5,253.5 234,-115 233,-33 234,-5"
           stroke="#a5a5a5"
           stroke-width="3"
           stroke-linecap="round"
           stroke-linejoin="round"
           stroke-miterlimit="10"
           fill="none"
           id="path7" />
      </g>
      <g
         id="g11">
        <path
           d="m 495.5,253.5 c 0,1.657 -1.343,3 -3,3 -1.657,0 -3,-1.343 -3,-3 0,-1.657 1.343,-3 3,-3 1.657,0 3,1.343 3,3 z"
           stroke="#a5a5a5"
           stroke-linejoin="round"
           stroke-miterlimit="10"
           fill="#a5a5a5"
           id="path8" />
        <path
           d="m 729.5,138.5 c 0,1.657 -1.343,3 -3,3 -1.657,0 -3,-1.343 -3,-3 0,-1.657 1.343,-3 3,-3 1.657,0 3,1.343 3,3 z"
           stroke="#a5a5a5"
           stroke-linejoin="round"
           stroke-miterlimit="10"
           fill="#a5a5a5"
           id="path9" />
        <path
           d="m 962.5,105.5 c 0,1.657 -1.343,3 -3,3 -1.657,0 -3,-1.343 -3,-3 0,-1.657 1.343,-3 3,-3 1.657,0 3,1.343 3,3 z"
           stroke="#a5a5a5"
           stroke-linejoin="round"
           stroke-miterlimit="10"
           fill="#a5a5a5"
           id="path10" />
        <path
           d="m 1196.5,100.5 c 0,1.657 -1.34,3 -3,3 -1.66,0 -3,-1.343 -3,-3 0,-1.6568 1.34,-2.9999 3,-2.9999 1.66,0 3,1.3431 3,2.9999 z"
           stroke="#a5a5a5"
           stroke-linejoin="round"
           stroke-miterlimit="10"
           fill="#a5a5a5"
           id="path11" />
      </g>
      <g
         id="g12">
        <path
           d="m 492.5,256.5 234,-72 h 233 l 234,-4"
           stroke="#ffc000"
           stroke-width="3"
           stroke-linecap="round"
           stroke-linejoin="round"
           stroke-miterlimit="10"
           fill="none"
           id="path12" />
      </g>
      <g
         id="g16">
        <path
           d="m 495.5,256.5 c 0,1.657 -1.343,3 -3,3 -1.657,0 -3,-1.343 -3,-3 0,-1.657 1.343,-3 3,-3 1.657,0 3,1.343 3,3 z"
           stroke="#ffc000"
           stroke-linejoin="round"
           stroke-miterlimit="10"
           fill="#ffc000"
           id="path13" />
        <path
           d="m 729.5,184.5 c 0,1.657 -1.343,3 -3,3 -1.657,0 -3,-1.343 -3,-3 0,-1.657 1.343,-3 3,-3 1.657,0 3,1.343 3,3 z"
           stroke="#ffc000"
           stroke-linejoin="round"
           stroke-miterlimit="10"
           fill="#ffc000"
           id="path14" />
        <path
           d="m 962.5,184.5 c 0,1.657 -1.343,3 -3,3 -1.657,0 -3,-1.343 -3,-3 0,-1.657 1.343,-3 3,-3 1.657,0 3,1.343 3,3 z"
           stroke="#ffc000"
           stroke-linejoin="round"
           stroke-miterlimit="10"
           fill="#ffc000"
           id="path15" />
        <path
           d="m 1196.5,180.5 c 0,1.657 -1.34,3 -3,3 -1.66,0 -3,-1.343 -3,-3 0,-1.657 1.34,-3 3,-3 1.66,0 3,1.343 3,3 z"
           stroke="#ffc000"
           stroke-linejoin="round"
           stroke-miterlimit="10"
           fill="#ffc000"
           id="path16" />
      </g>
      <g
         id="g17">
        <path
           d="m 492.5,236.5 234,-178.9999 233,-7 234,-1"
           stroke="#4472c4"
           stroke-width="3"
           stroke-linecap="round"
           stroke-linejoin="round"
           stroke-miterlimit="10"
           fill="none"
           id="path17" />
      </g>
      <g
         id="g21">
        <path
           d="m 495.5,236.5 c 0,1.657 -1.343,3 -3,3 -1.657,0 -3,-1.343 -3,-3 0,-1.657 1.343,-3 3,-3 1.657,0 3,1.343 3,3 z"
           stroke="#4472c4"
           stroke-linejoin="round"
           stroke-miterlimit="10"
           fill="#4472c4"
           id="path18" />
        <path
           d="m 729.5,57.4999 c 0,1.6568 -1.343,2.9999 -3,2.9999 -1.657,0 -3,-1.3431 -3,-2.9999 0,-1.6567 1.343,-2.9998 3,-2.9998 1.657,0 3,1.3431 3,2.9998 z"
           stroke="#4472c4"
           stroke-linejoin="round"
           stroke-miterlimit="10"
           fill="#4472c4"
           id="path19" />
        <path
           d="m 962.5,50.4999 c 0,1.6568 -1.343,2.9999 -3,2.9999 -1.657,0 -3,-1.3431 -3,-2.9999 0,-1.6567 1.343,-2.9998 3,-2.9998 1.657,0 3,1.3431 3,2.9998 z"
           stroke="#4472c4"
           stroke-linejoin="round"
           stroke-miterlimit="10"
           fill="#4472c4"
           id="path20" />
        <path
           d="m 1196.5,49.4999 c 0,1.6568 -1.34,2.9999 -3,2.9999 -1.66,0 -3,-1.3431 -3,-2.9999 0,-1.6567 1.34,-2.9998 3,-2.9998 1.66,0 3,1.3431 3,2.9998 z"
           stroke="#4472c4"
           stroke-linejoin="round"
           stroke-miterlimit="10"
           fill="#4472c4"
           id="path21" />
      </g>
      <g
         id="g22">
        <path
           d="m 492.5,236.5 234,-136 233,-29.9999 234,-3"
           stroke="#70ad47"
           stroke-width="3"
           stroke-linecap="round"
           stroke-linejoin="round"
           stroke-miterlimit="10"
           fill="none"
           id="path22" />
      </g>
      <g
         id="g26">
        <path
           d="m 495.5,236.5 c 0,1.657 -1.343,3 -3,3 -1.657,0 -3,-1.343 -3,-3 0,-1.657 1.343,-3 3,-3 1.657,0 3,1.343 3,3 z"
           stroke="#70ad47"
           stroke-linejoin="round"
           stroke-miterlimit="10"
           fill="#70ad47"
           id="path23" />
        <path
           d="m 729.5,100.5 c 0,1.657 -1.343,3 -3,3 -1.657,0 -3,-1.343 -3,-3 0,-1.6568 1.343,-2.9999 3,-2.9999 1.657,0 3,1.3431 3,2.9999 z"
           stroke="#70ad47"
           stroke-linejoin="round"
           stroke-miterlimit="10"
           fill="#70ad47"
           id="path24" />
        <path
           d="m 962.5,70.4999 c 0,1.6568 -1.343,2.9999 -3,2.9999 -1.657,0 -3,-1.3431 -3,-2.9999 0,-1.6567 1.343,-2.9998 3,-2.9998 1.657,0 3,1.3431 3,2.9998 z"
           stroke="#70ad47"
           stroke-linejoin="round"
           stroke-miterlimit="10"
           fill="#70ad47"
           id="path25" />
        <path
           d="m 1196.5,67.4999 c 0,1.6568 -1.34,2.9999 -3,2.9999 -1.66,0 -3,-1.3431 -3,-2.9999 0,-1.6567 1.34,-2.9998 3,-2.9998 1.66,0 3,1.3431 3,2.9998 z"
           stroke="#70ad47"
           stroke-linejoin="round"
           stroke-miterlimit="10"
           fill="#70ad47"
           id="path26" />
      </g>
      <g
         id="g27">
        <path
           d="m 492.5,250.5 234,-144 233,-5 234,-2.9999"
           stroke="#ed7d31"
           stroke-width="3"
           stroke-linecap="round"
           stroke-linejoin="round"
           stroke-miterlimit="10"
           fill="none"
           id="path27" />
      </g>
      <g
         id="g31">
        <path
           d="m 495.5,250.5 c 0,1.657 -1.343,3 -3,3 -1.657,0 -3,-1.343 -3,-3 0,-1.657 1.343,-3 3,-3 1.657,0 3,1.343 3,3 z"
           stroke="#ed7d31"
           stroke-linejoin="round"
           stroke-miterlimit="10"
           fill="#ed7d31"
           id="path28" />
        <path
           d="m 729.5,106.5 c 0,1.657 -1.343,3 -3,3 -1.657,0 -3,-1.343 -3,-3 0,-1.657 1.343,-3 3,-3 1.657,0 3,1.343 3,3 z"
           stroke="#ed7d31"
           stroke-linejoin="round"
           stroke-miterlimit="10"
           fill="#ed7d31"
           id="path29" />
        <path
           d="m 962.5,101.5 c 0,1.657 -1.343,3 -3,3 -1.657,0 -3,-1.343 -3,-3 0,-1.6568 1.343,-2.9999 3,-2.9999 1.657,0 3,1.3431 3,2.9999 z"
           stroke="#ed7d31"
           stroke-linejoin="round"
           stroke-miterlimit="10"
           fill="#ed7d31"
           id="path30" />
        <path
           d="m 1196.5,98.4999 c 0,1.6571 -1.34,3.0001 -3,3.0001 -1.66,0 -3,-1.343 -3,-3.0001 0,-1.6567 1.34,-2.9998 3,-2.9998 1.66,0 3,1.3431 3,2.9998 z"
           stroke="#ed7d31"
           stroke-linejoin="round"
           stroke-miterlimit="10"
           fill="#ed7d31"
           id="path31" />
      </g>
      <g
         id="g32">
        <text
           fill="#595959"
           font-family="Calibri, Calibri_MSFontService, sans-serif"
           font-weight="400"
           font-size="24px"
           transform="translate(458.3,325)"
           id="text31">0</text>
      </g>
      <g
         id="g33">
        <text
           fill="#595959"
           font-family="Calibri, Calibri_MSFontService, sans-serif"
           font-weight="400"
           font-size="24px"
           transform="translate(446.134,292)"
           id="text32">20</text>
      </g>
      <g
         id="g34">
        <text
           fill="#595959"
           font-family="Calibri, Calibri_MSFontService, sans-serif"
           font-weight="400"
           font-size="24px"
           transform="translate(446.134,259)"
           id="text33">40</text>
      </g>
      <g
         id="g35">
        <text
           fill="#595959"
           font-family="Calibri, Calibri_MSFontService, sans-serif"
           font-weight="400"
           font-size="24px"
           transform="translate(446.134,226)"
           id="text34">60</text>
      </g>
      <g
         id="g36">
        <text
           fill="#595959"
           font-family="Calibri, Calibri_MSFontService, sans-serif"
           font-weight="400"
           font-size="24px"
           transform="translate(446.134,193)"
           id="text35">80</text>
      </g>
      <g
         id="g37">
        <text
           fill="#595959"
           font-family="Calibri, Calibri_MSFontService, sans-serif"
           font-weight="400"
           font-size="24px"
           transform="translate(433.967,160)"
           id="text36">100</text>
      </g>
      <g
         id="g38">
        <text
           fill="#595959"
           font-family="Calibri, Calibri_MSFontService, sans-serif"
           font-weight="400"
           font-size="24px"
           transform="translate(433.967,127)"
           id="text37">120</text>
      </g>
      <g
         id="g39">
        <text
           fill="#595959"
           font-family="Calibri, Calibri_MSFontService, sans-serif"
           font-weight="400"
           font-size="24px"
           transform="translate(433.967,94)"
           id="text38">140</text>
      </g>
      <g
         id="g40">
        <text
           fill="#595959"
           font-family="Calibri, Calibri_MSFontService, sans-serif"
           font-weight="400"
           font-size="24px"
           transform="translate(433.967,61)"
           id="text39">160</text>
      </g>
      <g
         id="g41">
        <text
           fill="#595959"
           font-family="Calibri, Calibri_MSFontService, sans-serif"
           font-weight="400"
           font-size="24px"
           transform="translate(433.967,28)"
           id="text40">180</text>
      </g>
      <g
         id="g42">
        <text
           fill="#595959"
           font-family="Calibri, Calibri_MSFontService, sans-serif"
           font-weight="400"
           font-size="24px"
           transform="translate(486.651,356)"
           id="text41">0</text>
      </g>
      <g
         id="g43">
        <text
           fill="#595959"
           font-family="Calibri, Calibri_MSFontService, sans-serif"
           font-weight="400"
           font-size="24px"
           transform="translate(720.136,356)"
           id="text42">1</text>
      </g>
      <g
         id="g44">
        <text
           fill="#595959"
           font-family="Calibri, Calibri_MSFontService, sans-serif"
           font-weight="400"
           font-size="24px"
           transform="translate(953.621,356)"
           id="text43">2</text>
      </g>
      <g
         id="g45">
        <text
           fill="#595959"
           font-family="Calibri, Calibri_MSFontService, sans-serif"
           font-weight="400"
           font-size="24px"
           transform="translate(1187.11,356)"
           id="text44">3</text>
      </g>
      <g
         id="g46">
        <text
           fill="#595959"
           font-family="Calibri, Calibri_MSFontService, sans-serif"
           font-weight="400"
           font-size="24px"
           transform="rotate(-90,329.8335,-93.8335)"
           id="text45"># Ortschaften</text>
      </g>
      <g
         id="g47">
        <text
           fill="#595959"
           font-family="Calibri, Calibri_MSFontService, sans-serif"
           font-weight="400"
           font-size="24px"
           transform="translate(736.542,389)"
           id="text46"># Gesundheitszentren</text>
      </g>
      <g
         id="g48">
        <path
           d="m 1220.5,131.5 h 25"
           stroke="#a5a5a5"
           stroke-width="3"
           stroke-linecap="round"
           stroke-linejoin="round"
           stroke-miterlimit="10"
           fill="none"
           fill-rule="evenodd"
           id="path47" />
      </g>
      <g
         id="g49">
        <path
           d="m 1236,132 c 0,1.657 -1.34,3 -3,3 -1.66,0 -3,-1.343 -3,-3 0,-1.657 1.34,-3 3,-3 1.66,0 3,1.343 3,3 z"
           stroke="#a5a5a5"
           stroke-linejoin="round"
           stroke-miterlimit="10"
           fill="#a5a5a5"
           id="path48" />
      </g>
      <g
         id="g50">
        <text
           fill="#595959"
           font-family="Calibri, Calibri_MSFontService, sans-serif"
           font-weight="400"
           font-size="24px"
           transform="translate(1248.44,139)"
           id="text49">Siedler1</text>
      </g>
      <g
         id="g51">
        <path
           d="m 1220.5,168.5 h 25"
           stroke="#ffc000"
           stroke-width="3"
           stroke-linecap="round"
           stroke-linejoin="round"
           stroke-miterlimit="10"
           fill="none"
           fill-rule="evenodd"
           id="path50" />
      </g>
      <g
         id="g52">
        <path
           d="m 1236,169 c 0,1.657 -1.34,3 -3,3 -1.66,0 -3,-1.343 -3,-3 0,-1.657 1.34,-3 3,-3 1.66,0 3,1.343 3,3 z"
           stroke="#ffc000"
           stroke-linejoin="round"
           stroke-miterlimit="10"
           fill="#ffc000"
           id="path51" />
      </g>
      <g
         id="g53">
        <text
           fill="#595959"
           font-family="Calibri, Calibri_MSFontService, sans-serif"
           font-weight="400"
           font-size="24px"
           transform="translate(1248.44,176)"
           id="text52">Siedler2</text>
      </g>
      <g
         id="g54">
        <path
           d="m 1220.5,205.5 h 25"
           stroke="#4472c4"
           stroke-width="3"
           stroke-linecap="round"
           stroke-linejoin="round"
           stroke-miterlimit="10"
           fill="none"
           fill-rule="evenodd"
           id="path53" />
      </g>
      <g
         id="g55">
        <path
           d="m 1236,206 c 0,1.657 -1.34,3 -3,3 -1.66,0 -3,-1.343 -3,-3 0,-1.657 1.34,-3 3,-3 1.66,0 3,1.343 3,3 z"
           stroke="#4472c4"
           stroke-linejoin="round"
           stroke-miterlimit="10"
           fill="#4472c4"
           id="path54" />
      </g>
      <g
         id="g56">
        <text
           fill="#595959"
           font-family="Calibri, Calibri_MSFontService, sans-serif"
           font-weight="400"
           font-size="24px"
           transform="translate(1248.44,213)"
           id="text55">Siedler3</text>
      </g>
      <g
         id="g57">
        <path
           d="m 1220.5,243.5 h 25"
           stroke="#70ad47"
           stroke-width="3"
           stroke-linecap="round"
           stroke-linejoin="round"
           stroke-miterlimit="10"
           fill="none"
           fill-rule="evenodd"
           id="path56" />
      </g>
      <g
         id="g58">
        <path
           d="m 1236,244 c 0,1.657 -1.34,3 -3,3 -1.66,0 -3,-1.343 -3,-3 0,-1.657 1.34,-3 3,-3 1.66,0 3,1.343 3,3 z"
           stroke="#70ad47"
           stroke-linejoin="round"
           stroke-miterlimit="10"
           fill="#70ad47"
           id="path57" />
      </g>
      <g
         id="g59">
        <text
           fill="#595959"
           font-family="Calibri, Calibri_MSFontService, sans-serif"
           font-weight="400"
           font-size="24px"
           transform="translate(1248.44,250)"
           id="text58">Siedler4</text>
      </g>
      <g
         id="g60">
        <path
           d="m 1220.5,280.5 h 25"
           stroke="#ed7d31"
           stroke-width="3"
           stroke-linecap="round"
           stroke-linejoin="round"
           stroke-miterlimit="10"
           fill="none"
           fill-rule="evenodd"
           id="path59" />
      </g>
      <g
         id="g61">
        <path
           d="m 1236,281 c 0,1.657 -1.34,3 -3,3 -1.66,0 -3,-1.343 -3,-3 0,-1.657 1.34,-3 3,-3 1.66,0 3,1.343 3,3 z"
           stroke="#ed7d31"
           stroke-linejoin="round"
           stroke-miterlimit="10"
           fill="#ed7d31"
           id="path60" />
      </g>
      <g
         id="g62">
        <text
           fill="#595959"
           font-family="Calibri, Calibri_MSFontService, sans-serif"
           font-weight="400"
           font-size="24px"
           transform="translate(1248.44,287)"
           id="text61">Siedler5</text>
      </g>
      <rect
         x="384.5"
         y="0.50005299"
         width="957"
         height="412"
         stroke="#d9d9d9"
         stroke-linejoin="round"
         stroke-miterlimit="10"
         fill="none"
         id="rect62" />
    </g>
  </g>
</svg>
